<svg width="1258" height="606" viewBox="0 0 1258 606" fill="none" xmlns="http://www.w3.org/2000/svg">
<path d="M683.81 376V229H717.83V348.28H791.54V376H683.81ZM792.048 376L857.568 229H891.168L956.898 376H921.198L867.438 246.22H880.878L826.908 376H792.048ZM824.808 344.5L833.838 318.67H909.438L918.678 344.5H824.808ZM1040.45 378.52C1029.11 378.52 1018.54 376.7 1008.74 373.06C999.079 369.28 990.679 363.96 983.539 357.1C976.399 350.24 970.799 342.19 966.739 332.95C962.819 323.71 960.859 313.56 960.859 302.5C960.859 291.44 962.819 281.29 966.739 272.05C970.799 262.81 976.399 254.76 983.539 247.9C990.819 241.04 999.289 235.79 1008.95 232.15C1018.61 228.37 1029.18 226.48 1040.66 226.48C1053.4 226.48 1064.88 228.72 1075.1 233.2C1085.46 237.54 1094.14 243.98 1101.14 252.52L1079.3 272.68C1074.26 266.94 1068.66 262.67 1062.5 259.87C1056.34 256.93 1049.62 255.46 1042.34 255.46C1035.48 255.46 1029.18 256.58 1023.44 258.82C1017.7 261.06 1012.73 264.28 1008.53 268.48C1004.33 272.68 1001.04 277.65 998.659 283.39C996.419 289.13 995.299 295.5 995.299 302.5C995.299 309.5 996.419 315.87 998.659 321.61C1001.04 327.35 1004.33 332.32 1008.53 336.52C1012.73 340.72 1017.7 343.94 1023.44 346.18C1029.18 348.42 1035.48 349.54 1042.34 349.54C1049.62 349.54 1056.34 348.14 1062.5 345.34C1068.66 342.4 1074.26 337.99 1079.3 332.11L1101.14 352.27C1094.14 360.81 1085.46 367.32 1075.1 371.8C1064.88 376.28 1053.33 378.52 1040.45 378.52ZM1191.39 378.52C1180.05 378.52 1169.48 376.7 1159.68 373.06C1150.02 369.28 1141.62 363.96 1134.48 357.1C1127.34 350.24 1121.74 342.19 1117.68 332.95C1113.76 323.71 1111.8 313.56 1111.8 302.5C1111.8 291.44 1113.76 281.29 1117.68 272.05C1121.74 262.81 1127.34 254.76 1134.48 247.9C1141.76 241.04 1150.23 235.79 1159.89 232.15C1169.55 228.37 1180.12 226.48 1191.6 226.48C1204.34 226.48 1215.82 228.72 1226.04 233.2C1236.4 237.54 1245.08 243.98 1252.08 252.52L1230.24 272.68C1225.2 266.94 1219.6 262.67 1213.44 259.87C1207.28 256.93 1200.56 255.46 1193.28 255.46C1186.42 255.46 1180.12 256.58 1174.38 258.82C1168.64 261.06 1163.67 264.28 1159.47 268.48C1155.27 272.68 1151.98 277.65 1149.6 283.39C1147.36 289.13 1146.24 295.5 1146.24 302.5C1146.24 309.5 1147.36 315.87 1149.6 321.61C1151.98 327.35 1155.27 332.32 1159.47 336.52C1163.67 340.72 1168.64 343.94 1174.38 346.18C1180.12 348.42 1186.42 349.54 1193.28 349.54C1200.56 349.54 1207.28 348.14 1213.44 345.34C1219.6 342.4 1225.2 337.99 1230.24 332.11L1252.08 352.27C1245.08 360.81 1236.4 367.32 1226.04 371.8C1215.82 376.28 1204.27 378.52 1191.39 378.52Z" fill="#5C85FF"/>
<path d="M704.375 154V68.8H670.775V49H762.275V68.8H728.675V154H704.375ZM822.749 72.1C829.149 72.1 834.849 73.4 839.849 76C844.949 78.5 848.949 82.4 851.849 87.7C854.749 92.9 856.199 99.6 856.199 107.8V154H832.799V111.4C832.799 104.9 831.349 100.1 828.449 97C825.649 93.9 821.649 92.35 816.449 92.35C812.749 92.35 809.399 93.15 806.399 94.75C803.499 96.25 801.199 98.6 799.499 101.8C797.899 105 797.099 109.1 797.099 114.1V154H773.699V42.7H797.099V95.65L791.849 88.9C794.749 83.5 798.899 79.35 804.299 76.45C809.699 73.55 815.849 72.1 822.749 72.1ZM918.046 155.2C908.846 155.2 900.746 153.4 893.746 149.8C886.846 146.2 881.496 141.3 877.696 135.1C873.896 128.8 871.996 121.65 871.996 113.65C871.996 105.55 873.846 98.4 877.546 92.2C881.346 85.9 886.496 81 892.996 77.5C899.496 73.9 906.846 72.1 915.046 72.1C922.946 72.1 930.046 73.8 936.346 77.2C942.746 80.5 947.796 85.3 951.496 91.6C955.196 97.8 957.046 105.25 957.046 113.95C957.046 114.85 956.996 115.9 956.896 117.1C956.796 118.2 956.696 119.25 956.596 120.25H891.046V106.6H944.296L935.296 110.65C935.296 106.45 934.446 102.8 932.746 99.7C931.046 96.6 928.696 94.2 925.696 92.5C922.696 90.7 919.196 89.8 915.196 89.8C911.196 89.8 907.646 90.7 904.546 92.5C901.546 94.2 899.196 96.65 897.496 99.85C895.796 102.95 894.946 106.65 894.946 110.95V114.55C894.946 118.95 895.896 122.85 897.796 126.25C899.796 129.55 902.546 132.1 906.046 133.9C909.646 135.6 913.846 136.45 918.646 136.45C922.946 136.45 926.696 135.8 929.896 134.5C933.196 133.2 936.196 131.25 938.896 128.65L951.346 142.15C947.646 146.35 942.996 149.6 937.396 151.9C931.796 154.1 925.346 155.2 918.046 155.2Z" fill="white"/>
<path d="M682.764 559V454H707.064V559H682.764ZM731.983 559V454H752.083L814.033 529.6H804.283V454H828.283V559H808.333L746.233 483.4H755.983V559H731.983ZM903.376 560.8C895.276 560.8 887.726 559.5 880.726 556.9C873.826 554.2 867.826 550.4 862.726 545.5C857.626 540.6 853.626 534.85 850.726 528.25C847.926 521.65 846.526 514.4 846.526 506.5C846.526 498.6 847.926 491.35 850.726 484.75C853.626 478.15 857.626 472.4 862.726 467.5C867.926 462.6 873.976 458.85 880.876 456.25C887.776 453.55 895.326 452.2 903.526 452.2C912.626 452.2 920.826 453.8 928.126 457C935.526 460.1 941.726 464.7 946.726 470.8L931.126 485.2C927.526 481.1 923.526 478.05 919.126 476.05C914.726 473.95 909.926 472.9 904.726 472.9C899.826 472.9 895.326 473.7 891.226 475.3C887.126 476.9 883.576 479.2 880.576 482.2C877.576 485.2 875.226 488.75 873.526 492.85C871.926 496.95 871.126 501.5 871.126 506.5C871.126 511.5 871.926 516.05 873.526 520.15C875.226 524.25 877.576 527.8 880.576 530.8C883.576 533.8 887.126 536.1 891.226 537.7C895.326 539.3 899.826 540.1 904.726 540.1C909.926 540.1 914.726 539.1 919.126 537.1C923.526 535 927.526 531.85 931.126 527.65L946.726 542.05C941.726 548.15 935.526 552.8 928.126 556C920.826 559.2 912.576 560.8 903.376 560.8Z" fill="white"/>
<path d="M520.76 569.612V134.794H464.449V569.612H428.986V0L128.93 84.1292V204.646H257.107V569.612H221.643V240.11H72.704V569.612H0V605.076H558V569.612H520.76ZM324.538 367.447V296.117H360.002V367.447H324.538ZM360.002 426.389V497.719H324.538V426.389H360.002ZM324.538 237.175V165.844H360.002V237.175H324.538ZM129.441 296.117H164.905V367.447H129.441V296.117ZM129.441 426.389H164.905V497.719H129.441V426.389Z" fill="white"/>
</svg>
