<svg width="40" height="40" viewBox="0 0 40 40" fill="none" xmlns="http://www.w3.org/2000/svg">
<g clip-path="url(#clip0_9_242)">
<path d="M39.3607 18.4458L24.9152 4.00002C24.5029 3.58767 23.9533 3.36133 23.3673 3.36133C22.7806 3.36133 22.2314 3.58799 21.819 4.00002L20.5075 5.31188C20.0954 5.72359 19.8685 6.2735 19.8685 6.85984C19.8685 7.44585 20.0954 8.0143 20.5075 8.426L28.9347 16.8718H2.16096C0.953813 16.8718 0 17.8168 0 19.0243V20.8789C0 22.0864 0.953813 23.1267 2.16096 23.1267H29.0303L20.5078 31.6196C20.0958 32.032 19.8688 32.5669 19.8688 33.1533C19.8688 33.739 20.0958 34.2817 20.5078 34.6938L21.8193 36.0014C22.2317 36.4137 22.781 36.6385 23.3676 36.6385C23.9536 36.6385 24.5032 36.4108 24.9156 35.9985L39.361 21.553C39.7743 21.1394 40.0016 20.5872 40 20.0002C40.0013 19.4113 39.7743 18.8588 39.3607 18.4458Z" fill="white"/>
</g>
<defs>
<clipPath id="clip0_9_242">
<rect width="40" height="40" fill="white"/>
</clipPath>
</defs>
</svg>
