<svg width="50" height="50" viewBox="0 0 50 50" fill="none" xmlns="http://www.w3.org/2000/svg">
<g clip-path="url(#clip0_9_196)">
<path d="M49.9511 14.7001C49.8339 12.0434 49.4043 10.217 48.7888 8.6343C48.1539 6.95439 47.1771 5.45038 45.8976 4.20004C44.6472 2.93026 43.1332 1.94354 41.4727 1.31862C39.881 0.703262 38.064 0.273491 35.4074 0.156476C32.7308 0.0293026 31.8811 0 25.0927 0C18.3042 0 17.4545 0.0293026 14.7879 0.146513C12.1312 0.263723 10.3048 0.69369 8.72256 1.30865C7.04215 1.94354 5.53815 2.9203 4.28781 4.20004C3.01803 5.45028 2.0318 6.96425 1.40639 8.62473C0.791031 10.217 0.361357 12.0336 0.244244 14.6902C0.117169 17.3668 0.0877686 18.2164 0.0877686 25.0049C0.0877686 31.7933 0.117169 32.6431 0.234282 35.3096C0.351492 37.9664 0.781459 39.7927 1.39691 41.3755C2.0318 43.0554 3.01803 44.5594 4.28781 45.8097C5.53815 47.0795 7.05212 48.0662 8.7126 48.6911C10.3047 49.3065 12.1213 49.7363 14.7784 49.8533C17.4446 49.9709 18.2947 49.9998 25.0832 49.9998C31.8716 49.9998 32.7213 49.9709 35.3879 49.8533C38.0446 49.7362 39.871 49.3066 41.4533 48.6911C43.1151 48.0486 44.6243 47.066 45.8842 45.8062C47.1441 44.5464 48.1268 43.0372 48.7694 41.3755C49.3844 39.7833 49.8145 37.9663 49.9316 35.3096C50.0488 32.6431 50.0781 31.7933 50.0781 25.0049C50.0781 18.2164 50.0681 17.3667 49.9511 14.7001ZM45.4485 35.1143C45.3408 37.5562 44.9307 38.8748 44.5888 39.7539C43.7486 41.932 42.0199 43.6609 39.8416 44.5011C38.9626 44.8429 37.6345 45.2531 35.202 45.3602C32.5648 45.4778 31.7739 45.5067 25.1026 45.5067C18.4313 45.5067 17.6305 45.4778 15.0027 45.3602C12.5608 45.2531 11.2422 44.8429 10.3631 44.5011C9.27921 44.1004 8.29259 43.4655 7.49166 42.6353C6.66142 41.8246 6.02653 40.8478 5.62586 39.7638C5.284 38.8847 4.87386 37.5562 4.76671 35.1242C4.64911 32.487 4.6202 31.6956 4.6202 25.0243C4.6202 18.353 4.64911 17.5522 4.76671 14.9249C4.87386 12.483 5.284 11.1644 5.62586 10.2853C6.02653 9.20092 6.66142 8.21449 7.50162 7.41336C8.31193 6.58312 9.28869 5.94823 10.3731 5.54806C11.2522 5.20619 12.5807 4.79596 15.0127 4.68842C17.6499 4.57121 18.4413 4.5419 25.1121 4.5419C31.7934 4.5419 32.5843 4.57121 35.212 4.68842C37.6539 4.79605 38.9725 5.20609 39.8516 5.54796C40.9355 5.94823 41.9222 6.58312 42.723 7.41336C43.5533 8.22416 44.1882 9.20092 44.5888 10.2853C44.9307 11.1644 45.3408 12.4925 45.4484 14.9249C45.5656 17.5621 45.5949 18.353 45.5949 25.0243C45.5949 31.6956 45.5657 32.477 45.4485 35.1143Z" fill="white"/>
<path d="M25.0927 12.1606C18.0017 12.1606 12.2484 17.9135 12.2484 25.005C12.2484 32.0964 18.0017 37.8493 25.0927 37.8493C32.184 37.8493 37.937 32.0964 37.937 25.005C37.937 17.9135 32.184 12.1606 25.0927 12.1606ZM25.0927 33.3367C20.4924 33.3367 16.7608 29.6057 16.7608 25.005C16.7608 20.4043 20.4924 16.6732 25.0926 16.6732C29.6933 16.6732 33.4244 20.4043 33.4244 25.005C33.4244 29.6057 29.6932 33.3367 25.0927 33.3367ZM41.4438 11.6527C41.4438 13.3087 40.101 14.6514 38.4447 14.6514C36.7889 14.6514 35.4462 13.3087 35.4462 11.6527C35.4462 9.99655 36.7888 8.6543 38.4448 8.6543C40.101 8.6543 41.4438 9.99645 41.4438 11.6527Z" fill="white"/>
</g>
<defs>
<clipPath id="clip0_9_196">
<rect width="50" height="50" fill="white"/>
</clipPath>
</defs>
</svg>
