<svg width="50" height="50" viewBox="0 0 50 50" fill="none" xmlns="http://www.w3.org/2000/svg">
<path fill-rule="evenodd" clip-rule="evenodd" d="M25.8836 22.4062C22.9008 25.1507 19.9898 27.7499 19.9898 27.7499C19.8908 27.8344 19.8097 27.9378 19.7512 28.054C19.6927 28.1702 19.658 28.297 19.6492 28.4268C19.6404 28.5566 19.6576 28.6869 19.6999 28.81C19.7421 28.9331 19.8085 29.0465 19.8952 29.1435C19.9819 29.2406 20.0871 29.3193 20.2047 29.3751C20.3222 29.4309 20.4497 29.4627 20.5797 29.4685C20.7097 29.4744 20.8396 29.4542 20.9617 29.4091C21.0837 29.3641 21.1956 29.2951 21.2906 29.2062C21.2906 29.2062 28.9172 22.3984 32.1734 19.1421C32.6711 18.6452 32.8203 18.2656 32.8469 18.107C32.8794 17.9473 32.8711 17.782 32.823 17.6264C32.7748 17.4707 32.6881 17.3297 32.5711 17.2163C32.3858 17.0232 32.1316 16.9114 31.864 16.9054C31.6984 16.8976 31.3297 16.9624 30.8336 17.196C27.9953 18.532 16.7086 26.0507 16.7086 26.0507C16.599 26.1205 16.5045 26.2115 16.4305 26.3183C16.3566 26.4251 16.3047 26.5456 16.2778 26.6728C16.251 26.7999 16.2499 26.9311 16.2744 27.0587C16.2989 27.1863 16.3487 27.3077 16.4207 27.4158C16.4928 27.5239 16.5857 27.6166 16.694 27.6883C16.8023 27.7601 16.9238 27.8095 17.0514 27.8337C17.1791 27.8579 17.3103 27.8564 17.4373 27.8293C17.5644 27.8022 17.6848 27.7499 17.7914 27.6757C17.7914 27.6757 21.993 24.8742 25.8836 22.4062Z" fill="white"/>
<path fill-rule="evenodd" clip-rule="evenodd" d="M25 2.14844C12.3875 2.14844 2.14844 12.3875 2.14844 25C2.14844 37.6125 12.3875 47.8516 25 47.8516C37.6125 47.8516 47.8516 37.6125 47.8516 25C47.8516 12.3875 37.6125 2.14844 25 2.14844ZM25 4.10156C36.5344 4.10156 45.8984 13.4656 45.8984 25C45.8984 36.5344 36.5344 45.8984 25 45.8984C13.4656 45.8984 4.10156 36.5344 4.10156 25C4.10156 13.4656 13.4656 4.10156 25 4.10156Z" fill="white"/>
<path fill-rule="evenodd" clip-rule="evenodd" d="M16.4657 27.6368L18.5555 34.4352C18.5633 34.4602 18.5719 34.4852 18.5813 34.5087C18.8039 35.0673 19.0266 35.3915 19.1867 35.5454C19.4758 35.8235 19.7719 35.8876 20.0172 35.8813C20.3625 35.8712 20.9188 35.6649 21.1391 34.8462C21.1547 34.786 21.1657 34.7251 21.1703 34.6634L21.486 30.3118L29.7414 36.3844C30.5899 37.0282 31.3524 37.1649 31.9297 36.9884C32.5258 36.8063 33.1032 36.2602 33.3758 35.0977C33.3774 35.0915 33.3797 35.0844 33.3805 35.0774L37.4555 15.8766C37.6977 14.854 37.5617 14.0899 37.2289 13.6438C36.8438 13.1243 36.1149 12.7712 34.875 13.1063C34.8415 13.1148 34.8087 13.1255 34.7766 13.1384L10.8422 22.4219C10.8055 22.436 10.7696 22.4532 10.7336 22.4712C9.60003 23.0805 9.34768 23.7759 9.34378 24.2274C9.33987 24.8344 9.76565 25.4219 10.4883 25.7118C10.5102 25.7204 10.5313 25.729 10.5539 25.7352L16.4657 27.6368ZM35.6188 14.9477C35.6094 15.0868 35.5907 15.2759 35.5524 15.4344L35.5461 15.4602L31.4727 34.6587C31.4347 34.7975 31.3851 34.9329 31.3242 35.0634C31.1825 34.9961 31.0471 34.9164 30.9196 34.8251L30.9047 34.8149L21.218 27.6907C21.0773 27.5876 20.9115 27.524 20.7379 27.5066C20.5643 27.4892 20.3892 27.5186 20.2308 27.5917C20.0724 27.6648 19.9364 27.7789 19.8371 27.9223C19.7377 28.0657 19.6785 28.2331 19.6657 28.4071L19.4899 30.8259L18.1828 26.5759C18.1365 26.4257 18.0547 26.2889 17.9442 26.1771C17.8338 26.0653 17.698 25.9818 17.5485 25.9337L11.8867 24.1118L35.4274 14.9813C35.4906 14.967 35.5545 14.9558 35.6188 14.9477Z" fill="white"/>
<path fill-rule="evenodd" clip-rule="evenodd" d="M20.6578 35.6384L24.9039 31.9712C25.1 31.8019 25.2208 31.5616 25.2398 31.3033C25.2588 31.0449 25.1743 30.7895 25.0051 30.5934C24.8358 30.3973 24.5955 30.2765 24.3372 30.2575C24.0788 30.2385 23.8234 30.323 23.6273 30.4923L19.382 34.1594C19.2849 34.2432 19.2053 34.3453 19.1476 34.4598C19.0899 34.5744 19.0554 34.6992 19.046 34.8271C19.0365 34.955 19.0524 35.0835 19.0926 35.2053C19.1329 35.327 19.1967 35.4397 19.2805 35.5368C19.3642 35.6339 19.4663 35.7136 19.5809 35.7712C19.6954 35.8289 19.8202 35.8634 19.9481 35.8728C20.076 35.8823 20.2045 35.8664 20.3263 35.8262C20.448 35.7859 20.5607 35.7221 20.6578 35.6384Z" fill="white"/>
</svg>
