<svg width="60" height="60" viewBox="0 0 60 60" fill="none" xmlns="http://www.w3.org/2000/svg">
<g clip-path="url(#clip0_107_129)">
<circle cx="30" cy="30" r="29" stroke="black" stroke-opacity="0.2" stroke-width="2"/>
<path d="M47.2721 29.2072L41.3301 26.2364L47.2721 23.2653C48.3349 22.734 48.336 21.2119 47.2721 20.6798L30.2173 12.1524C30.0166 12.0522 29.7953 12 29.5709 12C29.3465 12 29.1252 12.0522 28.9245 12.1524L11.8697 20.6798C10.8068 21.2114 10.8057 22.7334 11.8697 23.2653L17.8115 26.2364L11.8696 29.2072C10.8068 29.7387 10.8057 31.2605 11.8696 31.7927L17.8116 34.7637L11.8696 37.7346C10.8068 38.2661 10.8057 39.7879 11.8696 40.3201L28.9244 48.8474C29.1251 48.9477 29.3464 49 29.5708 49C29.7952 49 30.0165 48.9477 30.2172 48.8474L47.272 40.3201C48.3349 39.7885 48.336 38.2667 47.272 37.7345L41.3302 34.7637L47.2721 31.7927C48.3349 31.2614 48.336 29.7393 47.2721 29.2071L47.2721 29.2072ZM29.5708 15.0612L43.3937 21.9727L29.5708 28.884L15.748 21.9727L29.5708 15.0612ZM43.3937 39.0274L29.5708 45.9387L15.748 39.0274L21.0434 36.3796L28.9244 40.3201C29.1251 40.4204 29.3464 40.4726 29.5708 40.4726C29.7952 40.4726 30.0165 40.4204 30.2172 40.3201L38.0982 36.3795L43.3937 39.0274ZM29.5708 37.4114L15.748 30.5001L21.0434 27.8522L28.9244 31.7927C29.1251 31.893 29.3464 31.9452 29.5708 31.9452C29.7952 31.9452 30.0165 31.893 30.2172 31.7927L38.0982 27.8522L43.3937 30.5001L29.5708 37.4114Z" fill="black"/>
</g>
<defs>
<clipPath id="clip0_107_129">
<rect width="60" height="60" fill="white"/>
</clipPath>
</defs>
</svg>
