<svg width="60" height="60" viewBox="0 0 60 60" fill="none" xmlns="http://www.w3.org/2000/svg">
<g clip-path="url(#clip0_107_127)">
<circle cx="30" cy="30" r="29" stroke="black" stroke-opacity="0.2" stroke-width="2"/>
<g clip-path="url(#clip1_107_127)">
<path d="M25.8913 41.7699C29.1984 41.77 32.411 40.6666 35.02 38.6344L44.8632 48.4776C45.5985 49.1878 46.7702 49.1674 47.4804 48.4321C48.1731 47.7148 48.1731 46.5777 47.4804 45.8604L37.6372 36.0173C42.6799 29.526 41.5056 20.176 35.0143 15.1333C28.5231 10.0907 19.1731 11.2649 14.1305 17.7562C9.08783 24.2474 10.2621 33.5975 16.7533 38.6401C19.3667 40.6703 22.5821 41.7716 25.8913 41.7699ZM17.9824 18.9796C22.3504 14.6115 29.4324 14.6114 33.8005 18.9794C38.1686 23.3474 38.1687 30.4294 33.8006 34.7975C29.4326 39.1656 22.3507 39.1656 17.9826 34.7976L17.9824 34.7975C13.6144 30.4613 13.5887 23.4052 17.9249 19.0371L17.9824 18.9796Z" fill="black"/>
</g>
</g>
<defs>
<clipPath id="clip0_107_127">
<rect width="60" height="60" fill="white"/>
</clipPath>
<clipPath id="clip1_107_127">
<rect width="37" height="37" fill="white" transform="translate(11 12)"/>
</clipPath>
</defs>
</svg>
